<?xml version="1.0" encoding="utf-8"?>
<!-- Generator: Adobe Illustrator 16.0.4, SVG Export Plug-In . SVG Version: 6.00 Build 0)  -->
<!DOCTYPE svg PUBLIC "-//W3C//DTD SVG 1.1//EN" "http://www.w3.org/Graphics/SVG/1.1/DTD/svg11.dtd">
<svg version="1.1" id="Layer_1" xmlns="http://www.w3.org/2000/svg" xmlns:xlink="http://www.w3.org/1999/xlink" x="0px" y="0px"
	 width="32px" height="32px" viewBox="0 0 32 32" enable-background="new 0 0 32 32" xml:space="preserve">
<g opacity="0.5">
	<path fill="#FFFFFF" d="M23.051,22c0,0.5-0.18,0.931-0.541,1.291c-0.359,0.32-0.791,0.48-1.289,0.48c-0.502,0-0.93-0.16-1.291-0.48
		l-3.959-4.56l-3.961,4.56c-0.357,0.32-0.789,0.48-1.289,0.48s-0.93-0.16-1.289-0.48C9.109,22.93,8.951,22.5,8.951,22
		c0-0.499,0.159-0.929,0.481-1.29l4.139-4.68l-4.139-4.74C9.109,10.929,8.951,10.5,8.951,10c0-0.5,0.159-0.93,0.481-1.29
		c0.359-0.32,0.789-0.48,1.289-0.48s0.932,0.161,1.289,0.48l3.961,4.56l3.959-4.56c0.361-0.32,0.789-0.48,1.291-0.48
		c0.498,0,0.93,0.161,1.289,0.48C22.871,9.07,23.051,9.5,23.051,10c0,0.5-0.18,0.929-0.541,1.29l-4.139,4.74l4.139,4.68
		C22.871,21.071,23.051,21.5,23.051,22z"/>
</g>
<g opacity="0.5">
	<path fill="#FFFFFF" d="M16,3.435c6.929,0,12.565,5.637,12.565,12.565S22.929,28.565,16,28.565S3.435,22.928,3.435,16
		S9.071,3.435,16,3.435 M16,1C7.715,1,1,7.715,1,16s6.715,15,15,15s15-6.715,15-15S24.285,1,16,1L16,1z"/>
</g>
</svg>
