<?xml version="1.0" encoding="utf-8"?>
<!-- Generator: Adobe Illustrator 16.0.4, SVG Export Plug-In . SVG Version: 6.00 Build 0)  -->
<!DOCTYPE svg PUBLIC "-//W3C//DTD SVG 1.1//EN" "http://www.w3.org/Graphics/SVG/1.1/DTD/svg11.dtd">
<svg version="1.1" id="Layer_1" xmlns="http://www.w3.org/2000/svg" xmlns:xlink="http://www.w3.org/1999/xlink" x="0px" y="0px"
	 width="44px" height="44px" viewBox="0 0 44 44" enable-background="new 0 0 44 44" xml:space="preserve">
<circle fill="none" stroke="#ED1818" stroke-miterlimit="10" cx="22" cy="22" r="21"/>
<g>
	<g>
		<path fill="#ED1818" d="M12.212,23.768c-0.681-0.604-1.193-1.32-1.518-2.124c-0.32-0.792-0.482-1.597-0.482-2.392
			s0.163-1.592,0.484-2.369c0.324-0.784,0.836-1.49,1.521-2.1c0.606-0.531,1.288-0.933,2.027-1.2
			c0.735-0.263,1.507-0.396,2.295-0.396s1.56,0.133,2.294,0.396c0.738,0.265,1.419,0.668,2.025,1.197l1.146,1.065l1.183-1.061
			c0.565-0.528,1.242-0.935,2.006-1.202c0.752-0.263,1.523-0.396,2.292-0.396c0.771,0,1.534,0.133,2.269,0.396
			c0.74,0.267,1.422,0.669,2.024,1.197c0.687,0.611,1.198,1.317,1.524,2.102c0.321,0.778,0.484,1.575,0.484,2.37
			s-0.162,1.6-0.482,2.393c-0.326,0.805-0.839,1.521-1.523,2.129L22,32.741L12.212,23.768z"/>
		<path fill="#ED1818" d="M27.486,13.688c0.717,0,1.418,0.123,2.1,0.367c0.683,0.246,1.305,0.613,1.864,1.103
			c0.63,0.561,1.094,1.2,1.392,1.917c0.297,0.718,0.446,1.443,0.446,2.178c0,0.735-0.149,1.471-0.446,2.205
			c-0.298,0.736-0.762,1.384-1.392,1.942L22,32.062l-9.45-8.663c-0.63-0.559-1.095-1.206-1.392-1.942
			c-0.297-0.734-0.446-1.47-0.446-2.205c0-0.734,0.149-1.46,0.446-2.178c0.297-0.717,0.762-1.356,1.392-1.917
			c0.56-0.49,1.182-0.857,1.864-1.103c0.682-0.244,1.391-0.367,2.126-0.367c0.734,0,1.444,0.123,2.126,0.367
			c0.684,0.246,1.304,0.613,1.864,1.103L22,16.522l1.522-1.365c0.524-0.49,1.137-0.857,1.837-1.103
			C26.06,13.811,26.768,13.688,27.486,13.688 M27.486,12.688c-0.825,0-1.651,0.142-2.456,0.423c-0.831,0.292-1.567,0.734-2.19,1.316
			l-0.828,0.742l-0.801-0.744c-0.675-0.59-1.41-1.024-2.207-1.311c-0.79-0.283-1.618-0.426-2.464-0.426s-1.674,0.143-2.463,0.426
			c-0.8,0.288-1.535,0.722-2.186,1.292c-0.748,0.666-1.304,1.434-1.657,2.287c-0.347,0.838-0.522,1.699-0.522,2.56
			c0,0.86,0.175,1.728,0.519,2.58c0.353,0.875,0.91,1.655,1.655,2.315l9.438,8.652L22,33.419l0.676-0.619l9.45-8.663
			c0.731-0.648,1.288-1.427,1.643-2.305c0.345-0.853,0.52-1.72,0.52-2.58c0-0.861-0.176-1.722-0.522-2.56
			c-0.355-0.855-0.91-1.623-1.65-2.282c-0.656-0.575-1.392-1.009-2.19-1.296C29.135,12.831,28.314,12.688,27.486,12.688
			L27.486,12.688z"/>
	</g>
</g>
</svg>
