<?xml version="1.0" encoding="utf-8"?>
<!-- Generator: Adobe Illustrator 16.0.4, SVG Export Plug-In . SVG Version: 6.00 Build 0)  -->
<!DOCTYPE svg PUBLIC "-//W3C//DTD SVG 1.1//EN" "http://www.w3.org/Graphics/SVG/1.1/DTD/svg11.dtd">
<svg version="1.1" id="Layer_1" xmlns="http://www.w3.org/2000/svg" xmlns:xlink="http://www.w3.org/1999/xlink" x="0px" y="0px"
	 width="44px" height="44px" viewBox="0 0 44 44" enable-background="new 0 0 44 44" xml:space="preserve">
<circle fill="none" stroke="#DDDDDD" stroke-miterlimit="10" cx="22" cy="22" r="21"/>
<g>
	<g>
		<g>
			<g>
				<polyline fill="none" stroke="#ED1818" stroke-miterlimit="10" points="22.645,31.473 22,32.062 21.355,31.473 				"/>
				<path fill="none" stroke="#ED1818" stroke-miterlimit="10" stroke-dasharray="1.8264,1.8264" d="M20.009,30.236l-7.458-6.838
					c-0.63-0.559-1.095-1.207-1.392-1.941c-0.297-0.735-0.446-1.47-0.446-2.205s0.149-1.461,0.446-2.179
					c0.297-0.717,0.762-1.356,1.392-1.916c0.56-0.49,1.181-0.857,1.864-1.103c0.682-0.244,1.391-0.367,2.126-0.367
					c0.734,0,1.444,0.123,2.126,0.367c0.684,0.246,1.304,0.613,1.864,1.103l0.159,0.148"/>
				<polyline fill="none" stroke="#ED1818" stroke-miterlimit="10" points="21.359,15.927 22,16.522 22.65,15.938 				"/>
				<path fill="none" stroke="#ED1818" stroke-miterlimit="10" stroke-dasharray="1.8259,1.8259" d="M24.025,14.744
					c0.401-0.289,0.847-0.519,1.334-0.689c0.699-0.244,1.408-0.367,2.127-0.367c0.717,0,1.418,0.123,2.1,0.367
					c0.684,0.246,1.305,0.613,1.864,1.103c0.63,0.56,1.094,1.199,1.392,1.916c0.297,0.718,0.446,1.444,0.446,2.179
					s-0.149,1.47-0.446,2.205c-0.298,0.735-0.762,1.383-1.392,1.942l-8.127,7.449"/>
			</g>
		</g>
	</g>
</g>
</svg>
