<?xml version="1.0" encoding="utf-8"?>
<!-- Generator: Adobe Illustrator 16.0.4, SVG Export Plug-In . SVG Version: 6.00 Build 0)  -->
<!DOCTYPE svg PUBLIC "-//W3C//DTD SVG 1.1//EN" "http://www.w3.org/Graphics/SVG/1.1/DTD/svg11.dtd">
<svg version="1.1" id="Layer_1" xmlns="http://www.w3.org/2000/svg" xmlns:xlink="http://www.w3.org/1999/xlink" x="0px" y="0px"
	 width="44px" height="44px" viewBox="0 0 44 44" enable-background="new 0 0 44 44" xml:space="preserve">
<circle display="none" fill="none" stroke="#DDDDDD" stroke-miterlimit="10" cx="22" cy="22" r="21"/>
<g>
	<g>
		<g>
			<g>
				<polyline fill="none" stroke="#ED1818" stroke-width="0.9286" stroke-miterlimit="10" points="22.742,32.777 22,33.457 
					21.257,32.777 				"/>
				<path fill="none" stroke="#ED1818" stroke-width="0.9286" stroke-miterlimit="10" stroke-dasharray="2.1035,2.1035" d="
					M19.707,31.353l-8.59-7.875c-0.725-0.644-1.26-1.389-1.602-2.236C9.172,20.396,9,19.549,9,18.702s0.171-1.683,0.514-2.509
					c0.342-0.826,0.877-1.562,1.602-2.207c0.646-0.564,1.361-0.988,2.147-1.271c0.786-0.281,1.603-0.423,2.448-0.423
					c0.845,0,1.663,0.142,2.449,0.423c0.788,0.283,1.502,0.706,2.147,1.271l0.183,0.17"/>
				<polyline fill="none" stroke="#ED1818" stroke-width="0.9286" stroke-miterlimit="10" points="21.261,14.873 22,15.558 
					22.749,14.885 				"/>
				<path fill="none" stroke="#ED1818" stroke-width="0.9286" stroke-miterlimit="10" stroke-dasharray="2.1029,2.1029" d="
					M24.332,13.511c0.463-0.333,0.977-0.598,1.537-0.793c0.806-0.282,1.622-0.423,2.449-0.423c0.825,0,1.634,0.142,2.419,0.423
					c0.787,0.282,1.503,0.706,2.146,1.27c0.726,0.645,1.26,1.38,1.604,2.207C34.829,17.021,35,17.857,35,18.704
					c0,0.846-0.171,1.693-0.513,2.54c-0.344,0.846-0.878,1.593-1.604,2.236l-9.36,8.58"/>
			</g>
		</g>
	</g>
</g>
</svg>
